<svg width="21" height="25" viewBox="0 0 21 25" fill="none" xmlns="http://www.w3.org/2000/svg">
<g clip-path="url(#clip0_3927_13449)">
<path fill-rule="evenodd" clip-rule="evenodd" d="M20.2984 9.23033L15.4669 8.16699L8.75391 9.2187C8.75391 9.2187 10.2696 10.8581 10.3933 10.8581C10.517 10.8581 20.2984 9.23033 20.2984 9.23033Z" fill="url(#paint0_linear_3927_13449)"></path>
<path style="mix-blend-mode:multiply" opacity="0.5" fill-rule="evenodd" clip-rule="evenodd" d="M13.4697 8.47951L8.75391 9.21835C8.75391 9.21835 10.2696 10.8577 10.3933 10.8577C10.4779 10.8577 13.1383 10.4577 16.0387 9.97622C16.675 9.87052 17.694 9.40385 16.5799 8.78499C15.4658 8.16612 13.4692 8.47899 13.4692 8.47899L13.4697 8.47951Z" fill="url(#paint1_linear_3927_13449)"></path>
<path style="mix-blend-mode:multiply" opacity="0.5" fill-rule="evenodd" clip-rule="evenodd" d="M12.6701 8.60498L8.75391 9.21856C8.75391 9.21856 10.2696 10.858 10.3933 10.858C10.4514 10.858 11.5301 10.5599 13.2445 10.228C15.2349 9.84272 14.3951 8.93106 12.6695 8.60498H12.6701Z" fill="url(#paint2_linear_3927_13449)"></path>
<path fill-rule="evenodd" clip-rule="evenodd" d="M7.33984 14.2455C7.33984 14.2455 7.88737 23.6812 7.91326 24.0131C7.93969 24.345 7.9899 24.7419 8.01262 24.7551C8.03535 24.7684 9.07701 24.9998 9.07701 24.9998C9.14994 24.7551 13.9756 14.2217 13.9756 14.2217L7.34037 14.2449L7.33984 14.2455Z" fill="url(#paint3_linear_3927_13449)"></path>
<path style="mix-blend-mode:multiply" opacity="0.5" fill-rule="evenodd" clip-rule="evenodd" d="M7.91181 24.0134C7.93824 24.3453 7.98844 24.7422 8.01117 24.7554C8.03389 24.7686 9.07556 25.0001 9.07556 25.0001C9.08877 24.9557 9.26001 24.5694 9.52901 23.9711C8.86786 24.488 8.25058 24.7512 7.89648 23.7734C7.90441 23.9008 7.9097 23.987 7.91181 24.0128V24.0134Z" fill="url(#paint4_linear_3927_13449)"></path>
<path style="mix-blend-mode:multiply" opacity="0.5" fill-rule="evenodd" clip-rule="evenodd" d="M12.8087 14.2261L7.33984 14.2451C7.33984 14.2451 7.53644 17.6306 7.69922 20.4174C7.97245 23.1619 12.3051 18.3901 12.8087 14.2261Z" fill="url(#paint5_linear_3927_13449)"></path>
<path fill-rule="evenodd" clip-rule="evenodd" d="M14.2187 0.898444C12.9878 0.542237 11.5064 0.233595 9.63608 0L0 2.28945L2.30477 14.3381L4.91819 15.366L14.2187 0.898444Z" fill="url(#paint6_linear_3927_13449)"></path>
<path style="mix-blend-mode:multiply" opacity="0.5" fill-rule="evenodd" clip-rule="evenodd" d="M5.81641 3.58851C5.97126 3.55733 10.5031 2.45964 11.725 2.02627C12.9469 1.59343 14.1999 0.91273 14.1534 0.943383C14.1069 0.974565 13.0267 0.900047 10.6601 1.53424C8.29347 2.16844 5.81641 3.58851 5.81641 3.58851Z" fill="url(#paint7_linear_3927_13449)"></path>
<path style="mix-blend-mode:multiply" opacity="0.5" fill-rule="evenodd" clip-rule="evenodd" d="M9.63608 0L0 2.28945C0 2.28945 8.59547 0.252093 10.2444 0.439709C11.8933 0.627325 14.2187 0.898973 14.2187 0.898973C12.9878 0.542237 11.5064 0.234124 9.63608 0Z" fill="url(#paint8_linear_3927_13449)"></path>
<path style="mix-blend-mode:multiply" opacity="0.5" fill-rule="evenodd" clip-rule="evenodd" d="M4.0393 4.13295C4.0393 4.13295 3.57369 4.09807 3.11496 3.90569C2.11134 3.48448 0.571833 2.66161 0 2.28955L2.30477 14.3382L4.91819 15.3661L4.03983 4.13242L4.0393 4.13295Z" fill="url(#paint9_linear_3927_13449)"></path>
<path style="mix-blend-mode:multiply" opacity="0.5" fill-rule="evenodd" clip-rule="evenodd" d="M4.23715 10.1786L3.68065 4.85666C3.68065 4.85666 0.586829 2.75271 0.494342 2.90756C0.401327 3.06241 1.91758 10.4249 2.04125 11.1363C2.16492 11.8476 4.05218 12.5283 4.23768 10.1786H4.23715Z" fill="url(#paint10_linear_3927_13449)"></path>
<path fill-rule="evenodd" clip-rule="evenodd" d="M14.5086 1.16004L14.219 0.898438C11.5232 2.07646 8.28824 2.97014 4.38635 3.51291L4.07031 4.1693L4.91855 15.366L5.19601 15.505L10.1258 14.6732C10.1258 14.6732 9.09262 23.9562 9.08416 24.3404C9.07517 24.7246 9.07729 25 9.07729 25C9.07729 25 9.17347 24.9678 9.18563 24.9477C12.623 19.0724 16.296 13.7885 20.376 9.36231L20.2999 9.22966L12.8545 10.3474L14.5097 1.16004H14.5086Z" fill="url(#paint11_radial_3927_13449)"></path>
<path style="mix-blend-mode:multiply" opacity="0.5" fill-rule="evenodd" clip-rule="evenodd" d="M20.3752 9.36331C20.3752 9.36331 12.8821 11.4836 12.4181 11.1586C12.1903 10.999 12.8737 8.54203 13.3958 6.10355C13.937 3.57575 14.3223 1.06592 14.3223 1.06592L14.4824 1.28894L12.8541 10.3468L20.2837 9.23225L20.3757 9.36331H20.3752Z" fill="url(#paint12_linear_3927_13449)"></path>
<path style="mix-blend-mode:multiply" opacity="0.5" fill-rule="evenodd" clip-rule="evenodd" d="M20.3552 9.3344C20.3409 9.37298 20.3066 9.4216 20.2632 9.48449C20.2632 9.48925 20.2585 9.494 20.2585 9.494C18.5525 11.3501 16.9194 13.3568 15.344 15.494C15.5866 15.0871 16.318 13.8996 17.1372 12.7606C18.2084 11.2682 18.7422 10.588 18.8384 10.1314C18.9346 9.67422 13.1465 10.3322 13.1465 10.3322C13.1465 10.3322 19.7495 9.26147 20.3118 9.25195C20.3457 9.25195 20.37 9.25195 20.3795 9.25671C20.3943 9.26147 20.3842 9.29053 20.3552 9.3344Z" fill="url(#paint13_linear_3927_13449)"></path>
<path style="mix-blend-mode:multiply" opacity="0.5" fill-rule="evenodd" clip-rule="evenodd" d="M14.5074 1.16004L14.2178 0.898438C13.6571 1.14313 13.0673 1.37303 12.459 1.59288C14.6232 1.83282 13.3897 6.48306 13.0742 9.1155L14.5074 1.16004Z" fill="url(#paint14_linear_3927_13449)"></path>
<path style="mix-blend-mode:multiply" opacity="0.5" fill-rule="evenodd" clip-rule="evenodd" d="M9.07907 24.9979C9.07907 24.9979 9.07432 24.7263 9.08383 24.3389C9.09334 23.9562 10.126 14.6753 10.126 14.6753L5.19727 15.504C5.20678 15.4992 5.23109 15.4844 5.27495 15.4654C6.01168 15.1119 10.2042 13.3409 11.1682 13.4571C12.1909 13.5829 9.07907 24.9984 9.07907 24.9984V24.9979Z" fill="url(#paint15_linear_3927_13449)"></path>
<path fill-rule="evenodd" clip-rule="evenodd" d="M9.54886 19.9017C9.31051 22.0854 9.08749 24.1635 9.08326 24.3411C9.07427 24.7253 9.07639 25.0006 9.07639 25.0006C9.07639 25.0006 9.17257 24.9684 9.18473 24.9483C10.2782 23.0795 11.3986 21.279 12.5449 19.5381C11.6782 20.5798 9.72908 23.9669 9.42784 23.9436C9.12607 23.9204 9.54886 20.6368 9.54886 19.9017Z" fill="white"></path>
<path fill-rule="evenodd" clip-rule="evenodd" d="M4.91767 15.3664L5.19513 15.5054L6.1422 15.3458C4.43886 15.7306 4.8569 11.8097 4.45312 9.23535L4.91767 15.367V15.3664Z" fill="white"></path>
<path style="mix-blend-mode:screen" fill-rule="evenodd" clip-rule="evenodd" d="M20.3751 9.36214L20.299 9.22949L12.8535 10.3473C12.8535 10.3473 16.4267 10.4556 20.3751 9.36214Z" fill="url(#paint16_radial_3927_13449)"></path>
<path style="mix-blend-mode:screen" fill-rule="evenodd" clip-rule="evenodd" d="M10.1248 14.6733C10.1248 14.6733 9.09162 23.9564 9.08316 24.3406C9.0747 24.7248 9.07629 25.0002 9.07629 25.0002C9.07629 25.0002 9.17248 24.9679 9.18463 24.9478C10.3019 23.0384 10.1254 14.6733 10.1254 14.6733H10.1248Z" fill="url(#paint17_radial_3927_13449)"></path>
<path style="mix-blend-mode:screen" fill-rule="evenodd" clip-rule="evenodd" d="M14.5086 1.16004L14.219 0.898438C11.5232 2.07646 8.28824 2.97014 4.38635 3.51291L4.07031 4.1693C8.02928 3.2048 11.6458 2.20277 14.5092 1.15951L14.5086 1.16004Z" fill="url(#paint18_radial_3927_13449)"></path>
<path style="mix-blend-mode:screen" opacity="0.7" fill-rule="evenodd" clip-rule="evenodd" d="M4.764 4.77938C4.20696 5.56843 4.85701 14.6168 5.59902 14.6628C6.34103 14.7088 10.6102 11.5537 11.8168 10.0691C13.0233 8.58403 14.6474 1.67024 13.7659 2.04177C12.8843 2.41331 5.3205 3.99087 4.764 4.77938Z" fill="url(#paint19_radial_3927_13449)"></path>
<path style="mix-blend-mode:screen" opacity="0.7" fill-rule="evenodd" clip-rule="evenodd" d="M10.8424 13.7353C10.7768 13.8663 9.45029 22.3196 9.45029 22.9226C9.45029 23.5257 9.35728 24.3147 9.4968 24.0827C9.56392 23.9712 11.4739 19.9768 13.905 16.5654C16.5242 12.8907 19.1482 10.4866 18.9162 10.2546C18.6842 10.0226 11.2134 12.9922 10.8424 13.7347V13.7353Z" fill="url(#paint20_radial_3927_13449)"></path>
<path style="mix-blend-mode:screen" opacity="0.7" fill-rule="evenodd" clip-rule="evenodd" d="M11.9724 1.88493C10.9498 2.32094 4.27115 3.93021 4.14537 3.95928C4.1311 3.96404 4.18659 4.14055 4.07032 4.16962C4.07032 4.16962 3.57142 4.09986 3.11585 3.90537C2.10537 3.47359 0.576429 2.66129 0.00195312 2.28712C0.00195312 2.28712 5.38152 0.959004 8.32313 1.05149C11.26 1.14345 12.995 1.45368 11.9724 1.88493Z" fill="url(#paint21_radial_3927_13449)"></path>
<path fill-rule="evenodd" clip-rule="evenodd" d="M3.00977 3.90311C3.00977 3.90311 3.9452 4.36555 4.13176 4.33912C4.31832 4.3127 7.08553 3.40157 7.24566 3.33762C7.4058 3.27368 4.44992 4.07382 4.14075 4.06325C3.83158 4.05268 3.00977 3.90311 3.00977 3.90311Z" fill="white"></path>
<path style="mix-blend-mode:screen" opacity="0.7" fill-rule="evenodd" clip-rule="evenodd" d="M2.30488 14.3383C2.30488 14.3383 1.94551 12.4743 2.97502 12.5726C4.00453 12.6709 5.24702 15.4973 5.19576 15.5052C5.1445 15.5132 2.30488 14.3383 2.30488 14.3383Z" fill="url(#paint22_radial_3927_13449)"></path>
<path fill-rule="evenodd" clip-rule="evenodd" d="M4.38659 3.5127L2.57227 3.63372C2.99401 3.95452 3.48339 4.15059 4.07002 4.16962C4.72325 3.93338 4.69101 3.71881 4.38607 3.51322L4.38659 3.5127Z" fill="white"></path>
</g>
<defs>
<linearGradient id="paint0_linear_3927_13449" x1="18.9206" y1="3.23242" x2="12.7303" y2="11.6736" gradientUnits="userSpaceOnUse">
<stop stop-color="#53D8D3"></stop>
<stop offset="1" stop-color="#0172CA"></stop>
</linearGradient>
<linearGradient id="paint1_linear_3927_13449" x1="9.15979" y1="10.1284" x2="17.9297" y2="8.68986" gradientUnits="userSpaceOnUse">
<stop stop-color="#4C81C0"></stop>
<stop offset="0.99" stop-color="white"></stop>
</linearGradient>
<linearGradient id="paint2_linear_3927_13449" x1="9.28452" y1="10.1487" x2="15.1313" y2="8.71015" gradientUnits="userSpaceOnUse">
<stop stop-color="#DE376D"></stop>
<stop offset="0.99" stop-color="white"></stop>
</linearGradient>
<linearGradient id="paint3_linear_3927_13449" x1="9.0268" y1="26.4432" x2="10.2238" y2="17.482" gradientUnits="userSpaceOnUse">
<stop stop-color="#53D8D3"></stop>
<stop offset="1" stop-color="#0172CA"></stop>
</linearGradient>
<linearGradient id="paint4_linear_3927_13449" x1="8.66228" y1="25.5587" x2="8.8018" y2="20.8952" gradientUnits="userSpaceOnUse">
<stop stop-color="#B82774"></stop>
<stop offset="0.99" stop-color="white"></stop>
</linearGradient>
<linearGradient id="paint5_linear_3927_13449" x1="9.84439" y1="16.3533" x2="9.00725" y2="24.072" gradientUnits="userSpaceOnUse">
<stop stop-color="#B82774"></stop>
<stop offset="0.99" stop-color="white"></stop>
</linearGradient>
<linearGradient id="paint6_linear_3927_13449" x1="11.9197" y1="-4.43356" x2="0.638423" y2="11.3796" gradientUnits="userSpaceOnUse">
<stop stop-color="#35FBFE"></stop>
<stop offset="1" stop-color="#0172CA"></stop>
</linearGradient>
<linearGradient id="paint7_linear_3927_13449" x1="11.0395" y1="3.61388" x2="8.93612" y2="0.922772" gradientUnits="userSpaceOnUse">
<stop stop-color="#4C81C0"></stop>
<stop offset="0.99" stop-color="white"></stop>
</linearGradient>
<linearGradient id="paint8_linear_3927_13449" x1="7.1495" y1="-1.1907" x2="7.08344" y2="3.37868" gradientUnits="userSpaceOnUse">
<stop stop-color="#4C81C0"></stop>
<stop offset="0.99" stop-color="white"></stop>
</linearGradient>
<linearGradient id="paint9_linear_3927_13449" x1="3.10333" y1="6.28551" x2="0.285388" y2="17.4019" gradientUnits="userSpaceOnUse">
<stop stop-color="#B82774"></stop>
<stop offset="0.99" stop-color="white"></stop>
</linearGradient>
<linearGradient id="paint10_linear_3927_13449" x1="2.61097" y1="5.68058" x2="0.632808" y2="13.4844" gradientUnits="userSpaceOnUse">
<stop stop-color="#4C81C0"></stop>
<stop offset="0.99" stop-color="white"></stop>
</linearGradient>
<radialGradient id="paint11_radial_3927_13449" cx="0" cy="0" r="1" gradientUnits="userSpaceOnUse" gradientTransform="translate(10.7986 14.9237) scale(10.9129 10.9129)">
<stop stop-color="#5FF5EF"></stop>
<stop offset="1" stop-color="#0A81E8"></stop>
</radialGradient>
<linearGradient id="paint12_linear_3927_13449" x1="15.8" y1="7.06911" x2="10.9077" y2="12.9275" gradientUnits="userSpaceOnUse">
<stop stop-color="#4C81C0"></stop>
<stop offset="0.99" stop-color="white"></stop>
</linearGradient>
<linearGradient id="paint13_linear_3927_13449" x1="22.1632" y1="8.18756" x2="14.4392" y2="12.7971" gradientUnits="userSpaceOnUse">
<stop stop-color="#B82774"></stop>
<stop offset="0.99" stop-color="white"></stop>
</linearGradient>
<linearGradient id="paint14_linear_3927_13449" x1="12.4595" y1="5.00697" x2="14.5074" y2="5.00697" gradientUnits="userSpaceOnUse">
<stop stop-color="#DE376D"></stop>
<stop offset="0.99" stop-color="white"></stop>
</linearGradient>
<linearGradient id="paint15_linear_3927_13449" x1="6.78381" y1="20.539" x2="13.2368" y2="15.2863" gradientUnits="userSpaceOnUse">
<stop stop-color="#4C81C0"></stop>
<stop offset="0.99" stop-color="white"></stop>
</linearGradient>
<radialGradient id="paint16_radial_3927_13449" cx="0" cy="0" r="1" gradientUnits="userSpaceOnUse" gradientTransform="translate(14.3782 10.5983) scale(13.048 13.048)">
<stop stop-color="#FFF261"></stop>
<stop offset="0.11" stop-color="#FAED5F"></stop>
<stop offset="0.23" stop-color="#ECE05A"></stop>
<stop offset="0.36" stop-color="#D6CB51"></stop>
<stop offset="0.5" stop-color="#B6AD45"></stop>
<stop offset="0.64" stop-color="#8E8636"></stop>
<stop offset="0.78" stop-color="#5C5723"></stop>
<stop offset="0.92" stop-color="#22210D"></stop>
<stop offset="1"></stop>
</radialGradient>
<radialGradient id="paint17_radial_3927_13449" cx="0" cy="0" r="1" gradientUnits="userSpaceOnUse" gradientTransform="translate(10.2099 21.8139) scale(12.583 12.583)">
<stop stop-color="#FFF261"></stop>
<stop offset="0.11" stop-color="#FAED5F"></stop>
<stop offset="0.23" stop-color="#ECE05A"></stop>
<stop offset="0.36" stop-color="#D6CB51"></stop>
<stop offset="0.5" stop-color="#B6AD45"></stop>
<stop offset="0.64" stop-color="#8E8636"></stop>
<stop offset="0.78" stop-color="#5C5723"></stop>
<stop offset="0.92" stop-color="#22210D"></stop>
<stop offset="1"></stop>
</radialGradient>
<radialGradient id="paint18_radial_3927_13449" cx="0" cy="0" r="1" gradientUnits="userSpaceOnUse" gradientTransform="translate(9.53602 3.31631) scale(9.93151 9.93151)">
<stop stop-color="#FFF261"></stop>
<stop offset="0.11" stop-color="#FAED5F"></stop>
<stop offset="0.23" stop-color="#ECE05A"></stop>
<stop offset="0.36" stop-color="#D6CB51"></stop>
<stop offset="0.5" stop-color="#B6AD45"></stop>
<stop offset="0.64" stop-color="#8E8636"></stop>
<stop offset="0.78" stop-color="#5C5723"></stop>
<stop offset="0.92" stop-color="#22210D"></stop>
<stop offset="1"></stop>
</radialGradient>
<radialGradient id="paint19_radial_3927_13449" cx="0" cy="0" r="1" gradientUnits="userSpaceOnUse" gradientTransform="translate(4.57849 17.216) scale(15.2265)">
<stop stop-color="#89CCDE"></stop>
<stop offset="0.12" stop-color="#86C7D9"></stop>
<stop offset="0.25" stop-color="#7DBBCB"></stop>
<stop offset="0.39" stop-color="#6FA6B5"></stop>
<stop offset="0.54" stop-color="#5C8995"></stop>
<stop offset="0.69" stop-color="#43646D"></stop>
<stop offset="0.84" stop-color="#24363B"></stop>
<stop offset="1"></stop>
</radialGradient>
<radialGradient id="paint20_radial_3927_13449" cx="0" cy="0" r="1" gradientUnits="userSpaceOnUse" gradientTransform="translate(9.72881 24.7322) scale(7.5316)">
<stop stop-color="#89CCDE"></stop>
<stop offset="0.12" stop-color="#86C7D9"></stop>
<stop offset="0.25" stop-color="#7DBBCB"></stop>
<stop offset="0.39" stop-color="#6FA6B5"></stop>
<stop offset="0.54" stop-color="#5C8995"></stop>
<stop offset="0.69" stop-color="#43646D"></stop>
<stop offset="0.84" stop-color="#24363B"></stop>
<stop offset="1"></stop>
</radialGradient>
<radialGradient id="paint21_radial_3927_13449" cx="0" cy="0" r="1" gradientUnits="userSpaceOnUse" gradientTransform="translate(4.48625 6.49131) scale(8.79048 8.79048)">
<stop stop-color="#89CCDE"></stop>
<stop offset="0.12" stop-color="#86C7D9"></stop>
<stop offset="0.25" stop-color="#7DBBCB"></stop>
<stop offset="0.39" stop-color="#6FA6B5"></stop>
<stop offset="0.54" stop-color="#5C8995"></stop>
<stop offset="0.69" stop-color="#43646D"></stop>
<stop offset="0.84" stop-color="#24363B"></stop>
<stop offset="1"></stop>
</radialGradient>
<radialGradient id="paint22_radial_3927_13449" cx="0" cy="0" r="1" gradientUnits="userSpaceOnUse" gradientTransform="translate(2.19073 16.984) scale(4.33684 4.33684)">
<stop stop-color="#89CCDE"></stop>
<stop offset="0.12" stop-color="#86C7D9"></stop>
<stop offset="0.25" stop-color="#7DBBCB"></stop>
<stop offset="0.39" stop-color="#6FA6B5"></stop>
<stop offset="0.54" stop-color="#5C8995"></stop>
<stop offset="0.69" stop-color="#43646D"></stop>
<stop offset="0.84" stop-color="#24363B"></stop>
<stop offset="1"></stop>
</radialGradient>
<clipPath id="clip0_3927_13449">
<rect width="20.3868" height="25" fill="white"></rect>
</clipPath>
</defs>
</svg>