<svg width="28" height="30" viewBox="0 0 28 30" fill="none" xmlns="http://www.w3.org/2000/svg">
<path fill-rule="evenodd" clip-rule="evenodd" d="M1.14062 12.0933H26.8572L26.5828 26.4505L10.2416 30.0002L1.31525 24.0205L1.14062 12.0933Z" fill="#AB5500"></path>
<path fill-rule="evenodd" clip-rule="evenodd" d="M10.2416 30.0002V12.0933H1.14062L1.31525 24.0205L10.2416 30.0002Z" fill="url(#paint0_radial_4181_6885)"></path>
<path fill-rule="evenodd" clip-rule="evenodd" d="M10.2402 12.0933V30.0002L26.5814 26.4505L26.8559 12.0933H10.2402Z" fill="url(#paint1_radial_4181_6885)"></path>
<path style="mix-blend-mode:multiply" opacity="0.5" fill-rule="evenodd" clip-rule="evenodd" d="M2.87093 24.7744C1.81586 23.9908 1.45047 23.4332 1.29492 22.5674L1.314 24.0201L10.2389 29.9999V28.3461C10.0584 28.8025 9.4215 28.8479 8.90057 28.619C7.2688 27.9029 4.33542 25.8632 2.87093 24.7744Z" fill="url(#paint2_radial_4181_6885)"></path>
<path style="mix-blend-mode:multiply" fill-rule="evenodd" clip-rule="evenodd" d="M10.2402 28.3459V29.9997L26.5814 26.45L26.624 24.0449C26.3789 25.0031 25.8991 25.5549 24.5138 26.18C21.8563 27.3789 16.2801 28.6526 13.382 28.9623C11.9439 29.1163 10.4603 29.0899 10.2402 28.3459Z" fill="url(#paint3_radial_4181_6885)"></path>
<path style="mix-blend-mode:multiply" opacity="0.4" fill-rule="evenodd" clip-rule="evenodd" d="M1.16263 13.8424L1.14648 12.6494L10.2401 17.7223V19.8926C9.62671 17.8353 2.90299 13.3464 1.16263 13.8424Z" fill="url(#paint4_radial_4181_6885)"></path>
<path style="mix-blend-mode:multiply" opacity="0.75" fill-rule="evenodd" clip-rule="evenodd" d="M10.2402 19.8926C11.7957 17.1162 23.3751 15.0633 26.7942 15.6869L26.8221 14.0698L10.2402 17.4244V19.8926Z" fill="url(#paint5_radial_4181_6885)"></path>
<path fill-rule="evenodd" clip-rule="evenodd" d="M0.937603 12.5304L10.1251 17.7442L27.0386 14.6406L27.1208 10.0197L0.878906 7.9917L0.937603 12.5304Z" fill="#AB5500"></path>
<path fill-rule="evenodd" clip-rule="evenodd" d="M0.878906 7.9917L10.1251 12.9809V17.7442L0.937603 12.5304L0.878906 7.9917Z" fill="url(#paint6_radial_4181_6885)"></path>
<path fill-rule="evenodd" clip-rule="evenodd" d="M10.125 12.9808L27.1207 10.0195L27.0385 14.6404L10.125 17.744V12.9808Z" fill="url(#paint7_radial_4181_6885)"></path>
<path fill-rule="evenodd" clip-rule="evenodd" d="M0.878906 7.99187L10.1251 12.9811L27.1208 10.0199L17.1482 5.3916L0.878906 7.99187Z" fill="url(#paint8_radial_4181_6885)"></path>
<path style="mix-blend-mode:screen" opacity="0.2" fill-rule="evenodd" clip-rule="evenodd" d="M12.0767 17.0485C11.4941 16.5114 11.613 15.0792 12.1163 14.5113C13.3797 13.0864 24.3384 10.4187 26.1272 11.1553C26.9167 11.4811 27.0737 13.0292 26.9857 13.7703C26.9328 14.212 26.7729 14.4937 26.5719 14.7256L27.0385 14.6404L27.1207 10.0195L10.125 12.9808V17.7426L12.5888 17.2906C12.3995 17.2422 12.219 17.1776 12.0781 17.047L12.0767 17.0485Z" fill="url(#paint9_radial_4181_6885)"></path>
<path style="mix-blend-mode:screen" opacity="0.5" fill-rule="evenodd" clip-rule="evenodd" d="M1.41353 12.5216C1.18168 11.9126 0.955698 10.3601 1.43261 9.82891C2.21328 8.9602 4.32196 10.1048 5.06301 10.4731C6.34701 11.1114 8.62151 12.4585 9.25837 13.7323C9.46381 14.1431 9.61055 14.5878 9.68833 15.0397C9.77197 15.5313 9.7074 16.7889 9.14244 16.9914C9.05293 17.0237 8.95755 17.0266 8.8607 17.0266L10.1271 17.7442V12.9824L0.880859 7.99316L0.941024 12.5319L1.64539 12.9325C1.5456 12.8048 1.47223 12.6713 1.415 12.5231L1.41353 12.5216Z" fill="url(#paint10_radial_4181_6885)"></path>
<path style="mix-blend-mode:screen" opacity="0.3" fill-rule="evenodd" clip-rule="evenodd" d="M3.41119 8.14545C3.6313 7.77272 4.28724 7.51299 4.90943 7.34717L0.876953 7.99137L10.1232 12.9806L27.1189 10.0193L24.7211 8.90704C24.9588 9.39569 24.5978 9.8095 23.6866 10.0868C20.4171 11.0803 15.1726 11.8815 11.8019 12.0576C11.2487 12.0869 10.6911 12.0576 10.1437 11.9798C8.10254 11.6863 5.74292 10.5359 4.09354 9.32525C3.45375 8.85568 3.21309 8.47562 3.40972 8.14545H3.41119Z" fill="url(#paint11_radial_4181_6885)"></path>
<path fill-rule="evenodd" clip-rule="evenodd" d="M4.47461 9.93311C5.44751 10.5083 9.60472 12.8826 9.82776 13.1336C10.0596 13.3889 10.0655 14.4087 10.1227 16.8212C10.199 15.8072 10.2812 13.4256 10.4397 13.2025C10.673 13.022 24.3142 10.5318 26.2746 10.1664C23.3662 10.6345 10.6187 12.7007 10.1785 12.7153C9.49759 12.5965 5.83638 10.6125 4.47461 9.93311Z" fill="#FF6A66"></path>
<path fill-rule="evenodd" clip-rule="evenodd" d="M17.3839 16.4117L17.0215 28.5267L20.4083 27.7915L20.806 15.7836C20.8221 14.2267 20.8382 12.6683 20.8529 11.1113L17.4148 11.71C17.4045 13.2772 17.3942 14.8444 17.3839 16.4117Z" fill="url(#paint12_radial_4181_6885)"></path>
<path fill-rule="evenodd" clip-rule="evenodd" d="M7.27101 28.0103L6.98779 15.9642C6.98192 14.4029 6.97459 12.8401 6.96872 11.2788L3.92969 9.63818C3.94289 11.176 3.9561 12.7124 3.96784 14.2503L4.29508 26.0175L7.26954 28.0103H7.27101Z" fill="url(#paint13_radial_4181_6885)"></path>
<path fill-rule="evenodd" clip-rule="evenodd" d="M20.8532 11.1114C19.0483 10.2148 16.9822 9.44 15.1523 8.54634C13.7348 7.85372 12.3759 7.09359 11.1521 6.34814L7.95898 6.85881C9.69641 7.67029 11.3737 8.44215 12.9937 9.27418C14.5257 10.0607 15.8831 10.925 17.4151 11.7101L20.8532 11.1114Z" fill="url(#paint14_radial_4181_6885)"></path>
<path style="mix-blend-mode:multiply" opacity="0.65" fill-rule="evenodd" clip-rule="evenodd" d="M15.93 10.9045C15.0716 9.71881 17.3343 9.78191 18.3542 9.97414C17.2712 9.5075 16.1751 9.04527 15.1523 8.54634C13.7348 7.85372 12.3759 7.09359 11.1521 6.34814L7.95898 6.85881C9.69494 7.67029 11.3737 8.44215 12.9937 9.27418C14.015 9.79805 14.9601 10.3571 15.93 10.9045Z" fill="url(#paint15_radial_4181_6885)"></path>
<path fill-rule="evenodd" clip-rule="evenodd" d="M6.9692 11.2787C9.89524 10.7827 12.4706 10.09 15.3966 9.59406C18.0512 9.14356 21.1342 8.71214 23.711 8.43773L20.4343 6.91748C18.2243 7.2814 16.1303 7.80234 13.9204 8.16772C10.629 8.71067 7.2216 9.0966 3.93164 9.63955L6.97067 11.2801L6.9692 11.2787Z" fill="url(#paint16_radial_4181_6885)"></path>
<g style="mix-blend-mode:multiply" opacity="0.35">
<path fill-rule="evenodd" clip-rule="evenodd" d="M3.96973 14.25L3.9668 13.9814C4.2999 14.4378 6.3631 15.7922 6.98675 15.6132V15.9639L7.0161 17.3257C6.95594 17.0234 6.79745 16.5494 6.32494 16.0446C5.57803 15.2493 4.34686 14.5097 3.98881 15.0615L3.96826 14.25H3.96973Z" fill="#F39200"></path>
</g>
<g style="mix-blend-mode:multiply" opacity="0.2">
<path fill-rule="evenodd" clip-rule="evenodd" d="M17.3853 16.4116L17.3883 15.9773C17.7229 16.5716 20.6342 15.9215 20.8118 15.2847L20.8074 15.7836L20.7707 17.0338C20.6914 16.7609 20.577 16.5202 20.2571 16.4703C19.6173 16.3706 18.5373 16.645 17.8901 17.1923C17.5247 17.5005 17.3633 17.9363 17.334 18.3413L17.3853 16.4116Z" fill="#F39200"></path>
</g>
<g style="mix-blend-mode:multiply" opacity="0.5">
<path fill-rule="evenodd" clip-rule="evenodd" d="M7.26548 27.7446C6.29405 27.1635 5.21696 26.4445 4.29102 25.7959L4.29689 26.0175L7.27135 28.0102L7.26548 27.7432V27.7446Z" fill="#936037"></path>
</g>
<g style="mix-blend-mode:multiply" opacity="0.5">
<path fill-rule="evenodd" clip-rule="evenodd" d="M20.4161 27.5522C19.3038 27.8516 18.1357 28.1275 17.0278 28.3579L17.0234 28.5266L20.4102 27.7914L20.4176 27.5522H20.4161Z" fill="#B17F4A"></path>
</g>
<path style="mix-blend-mode:screen" fill-rule="evenodd" clip-rule="evenodd" d="M3.92969 9.63784C3.92969 9.63784 3.93262 10.2791 3.93262 10.304C4.24812 10.1955 6.21006 11.0935 6.97019 12.0151C6.97019 11.9182 6.97019 11.3738 6.97019 11.2769C6.97019 11.2769 7.40161 11.2036 7.44123 11.1962C6.35827 10.7487 5.30613 10.1661 4.42274 9.55566C4.25839 9.58208 4.09551 9.60996 3.93115 9.63637L3.92969 9.63784Z" fill="url(#paint17_radial_4181_6885)"></path>
<path style="mix-blend-mode:screen" fill-rule="evenodd" clip-rule="evenodd" d="M20.4205 10.8955C19.3435 11.1156 18.1284 11.3313 17.0059 11.5001C17.1423 11.5705 17.2788 11.6395 17.4153 11.7099L20.8534 11.1112L20.4191 10.8955H20.4205Z" fill="url(#paint18_radial_4181_6885)"></path>
<path style="mix-blend-mode:multiply" opacity="0.5" fill-rule="evenodd" clip-rule="evenodd" d="M17.4102 12.41C18.5342 12.1048 19.7199 11.823 20.8483 11.5941C20.8498 11.4327 20.8513 11.2713 20.8527 11.1099L17.4146 11.7086C17.4131 11.9419 17.4116 12.1752 17.4102 12.4085V12.41Z" fill="url(#paint19_radial_4181_6885)"></path>
<path style="mix-blend-mode:multiply" fill-rule="evenodd" clip-rule="evenodd" d="M4.73047 9.50748C7.45694 10.6477 10.3184 10.3263 13.7008 9.90516C14.2555 9.7951 14.819 9.68945 15.3957 9.59113C18.0503 9.14063 21.1333 8.70921 23.7101 8.4348L20.4334 6.91455C18.2234 7.27847 16.1294 7.79941 13.9195 8.16479C10.8951 8.66372 7.77243 9.03057 4.73194 9.50895L4.73047 9.50748Z" fill="url(#paint20_radial_4181_6885)"></path>
<path fill-rule="evenodd" clip-rule="evenodd" d="M13.4213 7.70389L14.72 7.95922C15.7927 5.1315 16.9064 3.82989 18.8009 1.40131C17.6445 1.60381 16.5146 1.86795 15.4845 2.34926C15.2908 1.68012 15.0355 1.08728 14.695 0.600098C13.5372 1.73148 13.0354 2.99053 12.9048 4.19088C12.7889 5.25476 12.9972 6.37734 13.4213 7.70389Z" fill="url(#paint21_radial_4181_6885)"></path>
<path style="mix-blend-mode:multiply" fill-rule="evenodd" clip-rule="evenodd" d="M15.3187 5.95034C14.7509 6.1822 13.6518 6.17779 13.2306 5.65833C13.0707 5.46023 12.9855 5.31642 12.877 5.03174C12.9107 5.85056 13.1059 6.72074 13.4199 7.70391L14.7186 7.95924C15.106 6.93792 15.4992 6.11616 15.9321 5.36925C15.7061 5.63191 15.4626 5.89165 15.3187 5.95034Z" fill="url(#paint22_radial_4181_6885)"></path>
<path style="mix-blend-mode:screen" fill-rule="evenodd" clip-rule="evenodd" d="M12.8926 4.31995C13.0041 4.16294 13.2066 3.99418 13.5691 3.98391C14.1634 3.9663 15.7966 4.12478 16.1576 4.59729C16.209 4.66626 16.2427 4.73817 16.2647 4.82328C16.6506 4.2143 17.0703 3.63613 17.5472 3.01394C17.3051 3.0653 17.0777 3.10639 16.8135 3.11373C15.9639 3.13427 14.7371 3.01688 13.9946 2.5972C13.7407 2.45339 13.6278 2.25235 13.5955 2.0249C13.1949 2.741 12.985 3.47765 12.9073 4.19228C12.9028 4.23484 12.8984 4.27886 12.894 4.32142L12.8926 4.31995Z" fill="url(#paint23_radial_4181_6885)"></path>
<path fill-rule="evenodd" clip-rule="evenodd" d="M13.2065 8.20876L14.2616 7.41048C12.8661 4.72657 12.6372 3.03023 12.0869 0C11.4677 0.997847 10.913 2.01624 10.5857 3.10506C9.95768 2.80424 9.34576 2.60027 8.75586 2.52837C8.82923 4.14547 9.43381 5.35756 10.2424 6.25415C10.9585 7.04949 11.9358 7.64087 13.208 8.20876H13.2065Z" fill="url(#paint24_radial_4181_6885)"></path>
<path style="mix-blend-mode:multiply" opacity="0.65" fill-rule="evenodd" clip-rule="evenodd" d="M13.1628 5.62453C12.9573 6.20269 12.2221 7.02005 11.5545 6.98776C11.3006 6.97603 11.1362 6.94374 10.8516 6.83515C11.484 7.35462 12.2647 7.78898 13.2068 8.20866L14.2618 7.41038C13.7585 6.44188 13.4063 5.60105 13.1363 4.78076C13.1818 5.12414 13.2141 5.47925 13.1613 5.62453H13.1628Z" fill="url(#paint25_radial_4181_6885)"></path>
<path style="mix-blend-mode:screen" fill-rule="evenodd" clip-rule="evenodd" d="M10.3293 6.35089C10.2868 6.16306 10.2956 5.90039 10.5289 5.62305C10.9119 5.16815 12.1167 4.05584 12.7095 4.10133C12.7946 4.1072 12.8709 4.13215 12.9487 4.17177C12.7506 3.47914 12.5994 2.78065 12.4527 2.01025C12.3294 2.2245 12.2091 2.4226 12.0389 2.62364C11.4886 3.27224 10.5847 4.10867 9.77612 4.38307C9.49878 4.47699 9.27573 4.4271 9.08203 4.29943C9.35057 5.0757 9.75851 5.72136 10.2398 6.25551C10.2692 6.28779 10.2985 6.32007 10.3279 6.35089H10.3293Z" fill="url(#paint26_radial_4181_6885)"></path>
<path fill-rule="evenodd" clip-rule="evenodd" d="M13.7392 7.76579C12.8617 6.47886 8.78665 2.61514 7.05803 3.16982C5.8386 3.56162 3.83117 6.53315 4.38586 7.99324C4.55314 8.43493 4.99337 8.73722 5.40572 8.90451C8.00159 9.95812 10.9144 9.73213 13.3885 9.0938C13.5059 8.65064 13.6233 8.20748 13.7407 7.76432L13.7392 7.76579Z" fill="url(#paint27_radial_4181_6885)"></path>
<path fill-rule="evenodd" clip-rule="evenodd" d="M14.2695 7.65267L14.9313 8.95868C16.8331 9.16411 20.4709 9.03498 22.6925 7.6424C22.9303 7.49419 23.1416 7.22712 23.0755 6.85292C22.782 5.18593 20.7893 2.99214 19.3175 2.82338C17.8779 2.65903 14.7596 6.21313 14.271 7.65414L14.2695 7.65267Z" fill="url(#paint28_radial_4181_6885)"></path>
<path fill-rule="evenodd" clip-rule="evenodd" d="M12.5377 8.67372L12.4952 9.15357C10.3498 9.64369 7.12149 9.75961 5.16835 8.48002C4.3055 7.91506 4.75307 6.35226 5.23145 6.17323C6.73409 5.61268 11.2156 7.69789 12.5363 8.67372H12.5377Z" fill="url(#paint29_linear_4181_6885)"></path>
<path style="mix-blend-mode:multiply" fill-rule="evenodd" clip-rule="evenodd" d="M6.71241 6.16895C7.87607 7.93279 9.40659 8.8646 11.5226 9.33711C11.8645 9.28575 12.1903 9.22412 12.494 9.15368L12.5366 8.67383C11.527 7.92838 8.67288 6.53433 6.71094 6.16895H6.71241Z" fill="url(#paint30_radial_4181_6885)"></path>
<path fill-rule="evenodd" clip-rule="evenodd" d="M15.5566 8.61671L15.6462 8.8515C17.3909 8.92928 19.526 8.81628 21.4997 8.0767C22.1454 7.83458 23.1535 7.42664 22.8761 6.6357C22.7103 6.15878 22.2466 5.62317 22.0118 5.59529C20.5914 5.42947 16.7775 7.63207 15.5566 8.61671Z" fill="url(#paint31_linear_4181_6885)"></path>
<path style="mix-blend-mode:multiply" fill-rule="evenodd" clip-rule="evenodd" d="M21.8705 5.95314C21.6768 5.72715 21.4831 5.67726 21.2204 5.66846C19.4976 6.06613 16.5922 7.78008 15.5547 8.61504C17.1718 8.43308 19.8645 7.9635 21.4904 7.13735C21.822 6.96859 22.0744 6.78076 22.1185 6.54011C22.1463 6.38603 22.0803 6.1982 21.8705 5.95314Z" fill="url(#paint32_radial_4181_6885)"></path>
<path style="mix-blend-mode:screen" fill-rule="evenodd" clip-rule="evenodd" d="M5.23179 6.17324C5.88626 5.92965 7.10422 6.18645 8.38088 6.63548C8.1006 6.31412 8.04044 5.75503 8.39702 5.20915C8.90621 4.43141 9.81602 4.36831 10.5072 4.61484C9.59297 3.91782 8.64648 3.34699 7.88049 3.1709C7.52977 3.23106 7.32874 3.29123 6.98096 3.54069C6.12545 4.15847 5.17163 5.56573 4.88401 6.36841C4.82531 6.53276 4.78569 6.70592 4.75781 6.87907C4.85906 6.52689 5.04249 6.24221 5.23032 6.17178L5.23179 6.17324Z" fill="url(#paint33_radial_4181_6885)"></path>
<path style="mix-blend-mode:screen" fill-rule="evenodd" clip-rule="evenodd" d="M19.5465 2.98472C19.2413 2.88934 18.9316 2.89814 18.5061 3.0082C17.9573 3.26793 17.3233 3.76686 16.7129 4.35823C17.0621 4.10583 17.4084 4.02806 18.0849 4.12931C18.8993 4.25257 19.5391 4.82634 19.6741 5.56885C19.7475 5.97239 19.6184 6.16169 19.3865 6.34512C20.4357 5.8594 21.4277 5.5263 22.0132 5.59526C22.1761 5.61434 22.449 5.87848 22.6559 6.19837C22.1379 5.06699 20.9024 3.40587 19.5465 2.98472Z" fill="url(#paint34_radial_4181_6885)"></path>
<path style="mix-blend-mode:multiply" opacity="0.5" fill-rule="evenodd" clip-rule="evenodd" d="M15.279 6.34508C15.3069 6.19101 15.3612 6.03693 15.4287 5.88725C15.4771 5.78306 15.5314 5.68034 15.5886 5.58496C15.5021 5.69062 15.4169 5.79627 15.3362 5.90192C15.2717 5.98557 15.2086 6.06921 15.1484 6.15139C14.7786 6.65324 14.4895 7.12429 14.334 7.49261C14.5145 7.88881 15.144 8.33638 15.7148 8.49486C16.0201 8.26301 16.4368 7.98126 16.9152 7.68484C17.1177 7.55864 17.3334 7.43098 17.555 7.30331C17.2307 7.42071 16.9255 7.50875 16.5997 7.50875C15.8968 7.50875 15.1337 7.17124 15.2805 6.34508H15.279Z" fill="url(#paint35_radial_4181_6885)"></path>
<path style="mix-blend-mode:multiply" opacity="0.5" fill-rule="evenodd" clip-rule="evenodd" d="M12.4545 6.73398C12.4223 7.18302 11.7502 7.6027 11.3334 7.6115C10.9798 7.61884 10.5983 7.49998 10.2578 7.4046C11.0077 7.75384 11.6841 8.11776 12.1655 8.42152C12.7994 8.31733 13.3159 7.94461 13.5214 7.47503C13.2279 7.10671 12.7832 6.62833 12.2579 6.12207C12.387 6.3143 12.4692 6.51681 12.4531 6.73252L12.4545 6.73398Z" fill="url(#paint36_radial_4181_6885)"></path>
<path d="M11.9629 8.8323C11.916 8.58577 12.296 8.27468 12.7289 7.97532C13.2469 7.61874 13.7003 7.39569 13.9205 7.41917C14.4825 7.4764 16.4943 8.71197 15.9704 9.40899C15.5889 9.91672 14.3739 9.95341 13.7781 9.90938C13.2102 9.86683 12.0891 9.50144 11.9615 8.8323H11.9629Z" fill="#C45800"></path>
<path fill-rule="evenodd" clip-rule="evenodd" d="M12.4522 9.02443C12.7442 9.27683 13.2021 9.42063 13.6951 9.4808C14.197 9.5439 14.7341 9.51895 15.186 9.43677C15.9784 9.29443 16.0562 8.87035 15.7246 8.50643C15.3416 8.08528 14.6739 7.64652 14.2058 7.42934C14.0048 7.33689 13.7905 7.33983 13.5924 7.43961C13.2329 7.62157 12.7941 7.89892 12.4874 8.13811C12.0355 8.49029 12.0223 8.65464 12.4508 9.02443H12.4522Z" fill="url(#paint37_radial_4181_6885)"></path>
<path style="mix-blend-mode:screen" fill-rule="evenodd" clip-rule="evenodd" d="M15.4392 8.23944C15.0577 7.91514 14.5734 7.60552 14.208 7.43383C14.0055 7.33844 13.7883 7.34138 13.5902 7.44116C13.2483 7.61285 12.8374 7.87259 12.5352 8.1015C12.5366 8.90418 15.6153 9.07 15.5184 8.38178C15.5096 8.32455 15.4847 8.2776 15.4392 8.23944Z" fill="url(#paint38_radial_4181_6885)"></path>
<defs>
<radialGradient id="paint0_radial_4181_6885" cx="0" cy="0" r="1" gradientUnits="userSpaceOnUse" gradientTransform="translate(1.34606 14.9489) scale(17.9759)">
<stop stop-color="#FF6163"></stop>
<stop offset="1" stop-color="#8F0000"></stop>
</radialGradient>
<radialGradient id="paint1_radial_4181_6885" cx="0" cy="0" r="1" gradientUnits="userSpaceOnUse" gradientTransform="translate(4.93697 1.75528) scale(32.0573)">
<stop stop-color="#E60E10"></stop>
<stop offset="1" stop-color="#730000"></stop>
</radialGradient>
<radialGradient id="paint2_radial_4181_6885" cx="0" cy="0" r="1" gradientUnits="userSpaceOnUse" gradientTransform="translate(9.50221 20.1227) scale(10.5053)">
<stop offset="0.54" stop-color="white"></stop>
<stop offset="0.58" stop-color="#F9F4F6"></stop>
<stop offset="0.66" stop-color="#E9D9DE"></stop>
<stop offset="0.76" stop-color="#D0ADB8"></stop>
<stop offset="0.87" stop-color="#AD6F83"></stop>
<stop offset="1" stop-color="#822341"></stop>
</radialGradient>
<radialGradient id="paint3_radial_4181_6885" cx="0" cy="0" r="1" gradientUnits="userSpaceOnUse" gradientTransform="translate(12.4267 13.7847) scale(21.3906 21.3906)">
<stop offset="0.54" stop-color="white"></stop>
<stop offset="0.58" stop-color="#F9F4F6"></stop>
<stop offset="0.66" stop-color="#E9D9DE"></stop>
<stop offset="0.76" stop-color="#D0ADB8"></stop>
<stop offset="0.87" stop-color="#AD6F83"></stop>
<stop offset="1" stop-color="#822341"></stop>
</radialGradient>
<radialGradient id="paint4_radial_4181_6885" cx="0" cy="0" r="1" gradientUnits="userSpaceOnUse" gradientTransform="translate(-0.938722 27.3999) scale(16.5863 16.5863)">
<stop offset="0.54" stop-color="white"></stop>
<stop offset="0.58" stop-color="#FAF6F4"></stop>
<stop offset="0.65" stop-color="#ECDED9"></stop>
<stop offset="0.73" stop-color="#D6B7AD"></stop>
<stop offset="0.84" stop-color="#B8816F"></stop>
<stop offset="0.95" stop-color="#923E22"></stop>
<stop offset="1" stop-color="#822000"></stop>
</radialGradient>
<radialGradient id="paint5_radial_4181_6885" cx="0" cy="0" r="1" gradientUnits="userSpaceOnUse" gradientTransform="translate(20.3522 27.055) scale(15.0513 15.0513)">
<stop offset="0.54" stop-color="white"></stop>
<stop offset="0.58" stop-color="#FAF6F4"></stop>
<stop offset="0.65" stop-color="#ECDED9"></stop>
<stop offset="0.73" stop-color="#D6B7AD"></stop>
<stop offset="0.84" stop-color="#B8816F"></stop>
<stop offset="0.95" stop-color="#923E22"></stop>
<stop offset="1" stop-color="#822000"></stop>
</radialGradient>
<radialGradient id="paint6_radial_4181_6885" cx="0" cy="0" r="1" gradientUnits="userSpaceOnUse" gradientTransform="translate(3.06977 8.3835) scale(19.9144 19.9144)">
<stop stop-color="#FF6163"></stop>
<stop offset="1" stop-color="#8F0000"></stop>
</radialGradient>
<radialGradient id="paint7_radial_4181_6885" cx="0" cy="0" r="1" gradientUnits="userSpaceOnUse" gradientTransform="translate(13.6395 -6.37451) scale(25.74 25.7401)">
<stop stop-color="#E60E10"></stop>
<stop offset="1" stop-color="#730000"></stop>
</radialGradient>
<radialGradient id="paint8_radial_4181_6885" cx="0" cy="0" r="1" gradientUnits="userSpaceOnUse" gradientTransform="translate(7.64959 16.34) scale(39.2579 39.2579)">
<stop stop-color="#F23559"></stop>
<stop offset="1" stop-color="#C40000"></stop>
</radialGradient>
<radialGradient id="paint9_radial_4181_6885" cx="0" cy="0" r="1" gradientUnits="userSpaceOnUse" gradientTransform="translate(25.9966 17.2246) scale(23.5697)">
<stop></stop>
<stop offset="1" stop-color="#FF9A8A"></stop>
</radialGradient>
<radialGradient id="paint10_radial_4181_6885" cx="0" cy="0" r="1" gradientUnits="userSpaceOnUse" gradientTransform="translate(7.15409 24.3887) scale(27.6433)">
<stop></stop>
<stop offset="1" stop-color="#FF9A8A"></stop>
</radialGradient>
<radialGradient id="paint11_radial_4181_6885" cx="0" cy="0" r="1" gradientUnits="userSpaceOnUse" gradientTransform="translate(16.9731 -3.82285) scale(21.9644)">
<stop></stop>
<stop offset="1" stop-color="#CA9E67"></stop>
</radialGradient>
<radialGradient id="paint12_radial_4181_6885" cx="0" cy="0" r="1" gradientUnits="userSpaceOnUse" gradientTransform="translate(6.18457 6.8514) scale(26.4884)">
<stop stop-color="#FFCC00"></stop>
<stop offset="1" stop-color="#B35100"></stop>
</radialGradient>
<radialGradient id="paint13_radial_4181_6885" cx="0" cy="0" r="1" gradientUnits="userSpaceOnUse" gradientTransform="translate(2.23922 3.34148) scale(24.1596)">
<stop stop-color="#FCF80D"></stop>
<stop offset="1" stop-color="#F78A0C"></stop>
</radialGradient>
<radialGradient id="paint14_radial_4181_6885" cx="0" cy="0" r="1" gradientUnits="userSpaceOnUse" gradientTransform="translate(14.9058 8.5302) scale(14.4482)">
<stop stop-color="#FC9C0D"></stop>
<stop offset="1" stop-color="#FCF80D"></stop>
</radialGradient>
<radialGradient id="paint15_radial_4181_6885" cx="0" cy="0" r="1" gradientUnits="userSpaceOnUse" gradientTransform="translate(16.4128 12.7256) scale(4.01193)">
<stop stop-color="#B85E16"></stop>
<stop offset="1" stop-color="white"></stop>
</radialGradient>
<radialGradient id="paint16_radial_4181_6885" cx="0" cy="0" r="1" gradientUnits="userSpaceOnUse" gradientTransform="translate(13.8206 9.0966) scale(7.16102 7.16102)">
<stop stop-color="#FC9C0D"></stop>
<stop offset="1" stop-color="#FCF80D"></stop>
</radialGradient>
<radialGradient id="paint17_radial_4181_6885" cx="0" cy="0" r="1" gradientUnits="userSpaceOnUse" gradientTransform="translate(3.51441 7.73166) scale(6.09714)">
<stop stop-color="#FFF385"></stop>
<stop offset="1"></stop>
</radialGradient>
<radialGradient id="paint18_radial_4181_6885" cx="0" cy="0" r="1" gradientUnits="userSpaceOnUse" gradientTransform="translate(18.3676 13.4327) scale(6.41263 6.41264)">
<stop stop-color="#F24C7C"></stop>
<stop offset="1"></stop>
</radialGradient>
<radialGradient id="paint19_radial_4181_6885" cx="0" cy="0" r="1" gradientUnits="userSpaceOnUse" gradientTransform="translate(19.5746 9.54999) scale(6.85433)">
<stop stop-color="#7C0000"></stop>
<stop offset="1" stop-color="white"></stop>
</radialGradient>
<radialGradient id="paint20_radial_4181_6885" cx="0" cy="0" r="1" gradientUnits="userSpaceOnUse" gradientTransform="translate(19.3049 6.56824) scale(20.4368 20.4368)">
<stop stop-color="#B85E16"></stop>
<stop offset="1" stop-color="white"></stop>
</radialGradient>
<radialGradient id="paint21_radial_4181_6885" cx="0" cy="0" r="1" gradientUnits="userSpaceOnUse" gradientTransform="translate(14.9533 7.73617) scale(16.2752)">
<stop stop-color="#F78A0C"></stop>
<stop offset="1" stop-color="#FCDC0D"></stop>
</radialGradient>
<radialGradient id="paint22_radial_4181_6885" cx="0" cy="0" r="1" gradientUnits="userSpaceOnUse" gradientTransform="translate(15.0062 3.76242) scale(4.8601 4.8601)">
<stop stop-color="white"></stop>
<stop offset="1" stop-color="#BA5700"></stop>
</radialGradient>
<radialGradient id="paint23_radial_4181_6885" cx="0" cy="0" r="1" gradientUnits="userSpaceOnUse" gradientTransform="translate(15.3358 1.23103) scale(5.11103)">
<stop stop-color="#FFF48F"></stop>
<stop offset="1"></stop>
</radialGradient>
<radialGradient id="paint24_radial_4181_6885" cx="0" cy="0" r="1" gradientUnits="userSpaceOnUse" gradientTransform="translate(13.616 6.93944) scale(8.92339)">
<stop stop-color="#F78A0C"></stop>
<stop offset="1" stop-color="#FCDC0D"></stop>
</radialGradient>
<radialGradient id="paint25_radial_4181_6885" cx="0" cy="0" r="1" gradientUnits="userSpaceOnUse" gradientTransform="translate(11.1113 4.52543) scale(4.61797 4.61798)">
<stop stop-color="white"></stop>
<stop offset="1" stop-color="#BA5700"></stop>
</radialGradient>
<radialGradient id="paint26_radial_4181_6885" cx="0" cy="0" r="1" gradientUnits="userSpaceOnUse" gradientTransform="translate(11.4857 1.24426) scale(5.54979)">
<stop stop-color="#FFF48F"></stop>
<stop offset="1"></stop>
</radialGradient>
<radialGradient id="paint27_radial_4181_6885" cx="0" cy="0" r="1" gradientUnits="userSpaceOnUse" gradientTransform="translate(7.22532 4.37898) scale(7.49559)">
<stop stop-color="#FCDC0D"></stop>
<stop offset="1" stop-color="#F78A0C"></stop>
</radialGradient>
<radialGradient id="paint28_radial_4181_6885" cx="0" cy="0" r="1" gradientUnits="userSpaceOnUse" gradientTransform="translate(21.7416 3.55123) scale(7.34004 7.34004)">
<stop stop-color="#FCDC0D"></stop>
<stop offset="1" stop-color="#F78A0C"></stop>
</radialGradient>
<linearGradient id="paint29_linear_4181_6885" x1="4.6797" y1="7.78887" x2="12.5377" y2="7.78887" gradientUnits="userSpaceOnUse">
<stop stop-color="#D46D17"></stop>
<stop offset="1" stop-color="#FF9D00"></stop>
</linearGradient>
<radialGradient id="paint30_radial_4181_6885" cx="0" cy="0" r="1" gradientUnits="userSpaceOnUse" gradientTransform="translate(13.778 4.75288) scale(6.93357 6.93357)">
<stop stop-color="#BA5700"></stop>
<stop offset="1" stop-color="white"></stop>
</radialGradient>
<linearGradient id="paint31_linear_4181_6885" x1="15.5566" y1="7.22853" x2="31.6117" y2="7.22853" gradientUnits="userSpaceOnUse">
<stop stop-color="#D46D17"></stop>
<stop offset="1" stop-color="#FF9D00"></stop>
</linearGradient>
<radialGradient id="paint32_radial_4181_6885" cx="0" cy="0" r="1" gradientUnits="userSpaceOnUse" gradientTransform="translate(14.956 8.90999) scale(7.70543 7.70543)">
<stop stop-color="#BA5700"></stop>
<stop offset="1" stop-color="white"></stop>
</radialGradient>
<radialGradient id="paint33_radial_4181_6885" cx="0" cy="0" r="1" gradientUnits="userSpaceOnUse" gradientTransform="translate(6.73883 7.1256) scale(6.65182)">
<stop stop-color="#FFF48F"></stop>
<stop offset="1"></stop>
</radialGradient>
<radialGradient id="paint34_radial_4181_6885" cx="0" cy="0" r="1" gradientUnits="userSpaceOnUse" gradientTransform="translate(16.8963 7.52199) scale(7.54695)">
<stop stop-color="#FFF48F"></stop>
<stop offset="1"></stop>
</radialGradient>
<radialGradient id="paint35_radial_4181_6885" cx="0" cy="0" r="1" gradientUnits="userSpaceOnUse" gradientTransform="translate(17.147 5.80067) scale(4.0222)">
<stop stop-color="white"></stop>
<stop offset="1" stop-color="#BA5700"></stop>
</radialGradient>
<radialGradient id="paint36_radial_4181_6885" cx="0" cy="0" r="1" gradientUnits="userSpaceOnUse" gradientTransform="translate(11.4435 6.13821) scale(3.51448)">
<stop stop-color="white"></stop>
<stop offset="1" stop-color="#BA5700"></stop>
</radialGradient>
<radialGradient id="paint37_radial_4181_6885" cx="0" cy="0" r="1" gradientUnits="userSpaceOnUse" gradientTransform="translate(13.5058 6.13067) scale(4.07063 4.07063)">
<stop stop-color="#FCDC0D"></stop>
<stop offset="1" stop-color="#F78A0C"></stop>
</radialGradient>
<radialGradient id="paint38_radial_4181_6885" cx="0" cy="0" r="1" gradientUnits="userSpaceOnUse" gradientTransform="translate(14.3019 5.8901) scale(3.48219 3.48219)">
<stop stop-color="#FFF48F"></stop>
<stop offset="1"></stop>
</radialGradient>
</defs>
</svg>